<?xml version="1.0" encoding="utf-8"?>
<!-- Generator: Adobe Illustrator 22.1.0, SVG Export Plug-In . SVG Version: 6.00 Build 0)  -->
<svg version="1.1" id="Lag_1" xmlns="http://www.w3.org/2000/svg" xmlns:xlink="http://www.w3.org/1999/xlink" x="0px" y="0px"
	 viewBox="0 0 141.7 141.7" style="enable-background:new 0 0 141.7 141.7;" xml:space="preserve">
<style type="text/css">
	.st0{stroke:#000000;stroke-miterlimit:10;}
</style>
<g>
	<path class="st0" d="M108.2,45.3H93.8v3.2c0,2.9-2.4,5.2-5.2,5.2h-2.1c-2.9,0-5.2-2.3-5.2-5.2v-3.2H59v3.2c0,2.9-2.4,5.2-5.2,5.2
		h-2.1c-2.9,0-5.2-2.3-5.2-5.2v-3.2H31.6c-1.9,0-3.5,1.5-3.5,3.5v56.7c0,1.9,1.5,3.5,3.5,3.5h76.7c1.9,0,3.5-1.5,3.5-3.5V48.8
		C111.7,46.9,110.2,45.3,108.2,45.3z M105.7,100c0,1.9-1.5,3.5-3.4,3.5H36.9c-1.9,0-3.5-1.5-3.5-3.5V60.1h72.3V100z"/>
	<rect x="37.5" y="66.5" class="st0" width="17.3" height="12.1"/>
	<rect x="60.2" y="66.5" class="st0" width="19.1" height="12.1"/>
	<rect x="84.4" y="66.5" class="st0" width="17.3" height="12.1"/>
	<rect x="37.5" y="84.3" class="st0" width="17.3" height="12.1"/>
	<rect x="60.2" y="84.3" class="st0" width="19.1" height="12.1"/>
	<rect x="84.4" y="84.3" class="st0" width="17.3" height="12.1"/>
	<path class="st0" d="M57.4,38.2v9.1c0,2.9-2.2,5.2-4.8,5.2c-1.6,0-3-0.9-3.9-2.2c-0.6-0.8-0.9-1.9-0.9-3v-9.1
		c0-2.9,2.2-5.2,4.8-5.2c1.3,0,2.5,0.6,3.4,1.5C56.8,35.5,57.4,36.8,57.4,38.2z"/>
	<path class="st0" d="M92.4,38.2v9.1c0,2.9-2.2,5.2-4.8,5.2c-1.6,0-3-0.9-3.9-2.2c-0.6-0.8-0.9-1.9-0.9-3v-9.1
		c0-2.9,2.2-5.2,4.8-5.2c1.3,0,2.5,0.6,3.4,1.5C91.9,35.5,92.4,36.8,92.4,38.2z"/>
</g>
</svg>
