<?xml version="1.0" encoding="utf-8"?>
<!-- Generator: Adobe Illustrator 22.1.0, SVG Export Plug-In . SVG Version: 6.00 Build 0)  -->
<svg version="1.1" id="Lag_1" xmlns="http://www.w3.org/2000/svg" xmlns:xlink="http://www.w3.org/1999/xlink" x="0px" y="0px"
	 viewBox="0 0 141.7 141.7" style="enable-background:new 0 0 141.7 141.7;" xml:space="preserve">
<style type="text/css">
	.st0{fill:#294B9A;}
	.st1{fill:#C6C026;}
	.st2{fill:#BFBEBE;}
</style>
<path class="st0" d="M84.7,69.5c8.5,7.9,14.2,22.8,14.2,39.9L84.7,69.5z"/>
<path d="M127,109.4h-25.4c-0.1-17.7-5.7-33.2-14.2-42.1c0.5-0.3,0.9-0.6,1.4-0.9c3,1.6,6.3,2.5,9.9,2.5c3.6,0,7-0.9,9.9-2.5
	C119.4,72.9,127,89.7,127,109.4z"/>
<path class="st1" d="M84.8,54.5c0.9-2,1.4-4.2,1.4-6.5c0-2.3-0.5-4.5-1.4-6.5L84.8,54.5z"/>
<path class="st1" d="M114.4,48c0,8.3-6.5,15-14.6,15.5c-0.3,0-0.6,0-0.9,0c-0.3,0-0.7,0-1,0c-4.6-0.3-8.6-2.6-11.3-6
	c1.6-2.8,2.6-6,2.6-9.5c0-3.5-0.9-6.7-2.6-9.5c2.8-3.7,7.3-6,12.3-6C107.5,32.5,114.4,39.4,114.4,48z"/>
<path class="st0" d="M84.8,54.5c0.9-2,1.4-4.2,1.4-6.5c0-2.3-0.5-4.5-1.4-6.5L84.8,54.5z"/>
<path d="M114.4,48c0,8.3-6.5,15-14.6,15.5c-0.3,0-0.6,0-0.9,0c-0.3,0-0.7,0-1,0c-4.6-0.3-8.6-2.6-11.3-6c1.6-2.8,2.6-6,2.6-9.5
	c0-3.5-0.9-6.7-2.6-9.5c2.8-3.7,7.3-6,12.3-6C107.5,32.5,114.4,39.4,114.4,48z"/>
<path d="M42.4,63.5c-0.3,0-0.7,0-1,0c0.3,0,0.6,0,0.9,0c0.3,0,0.7,0,1,0C42.9,63.5,42.6,63.5,42.4,63.5z"/>
<path d="M53.7,67.4c-8.4,9-14,24.4-14,42H14c0-19.7,7.6-36.5,18.3-43.1c2.9,1.6,6.3,2.5,9.9,2.5c3.6,0,7-0.9,9.9-2.5
	C52.7,66.7,53.2,67,53.7,67.4z"/>
<path class="st0" d="M42.4,109.4c0-16.9,5.6-31.8,14-39.7L42.4,109.4z"/>
<path class="st1" d="M54.6,38.6c-1.6,2.8-2.6,6-2.6,9.4s0.9,6.7,2.6,9.4c-2.7,3.5-6.8,5.8-11.4,6c-0.3,0-0.6,0-0.9,0
	c-0.3,0-0.7,0-1,0c-8.1-0.5-14.5-7.2-14.5-15.5c0-8.6,6.9-15.5,15.5-15.5C47.4,32.5,51.8,34.9,54.6,38.6z"/>
<path class="st1" d="M56.6,54.2c-0.8-1.9-1.3-4-1.3-6.1c0-2.2,0.5-4.3,1.3-6.2L56.6,54.2z"/>
<path d="M54.6,38.6c-1.6,2.8-2.6,6-2.6,9.4s0.9,6.7,2.6,9.4c-2.7,3.5-6.8,5.8-11.4,6c-0.3,0-0.6,0-0.9,0c-0.3,0-0.7,0-1,0
	c-8.1-0.5-14.5-7.2-14.5-15.5c0-8.6,6.9-15.5,15.5-15.5C47.4,32.5,51.8,34.9,54.6,38.6z"/>
<path class="st0" d="M56.6,54.2c-0.8-1.9-1.3-4-1.3-6.1c0-2.2,0.5-4.3,1.3-6.2L56.6,54.2z"/>
<path class="st2" d="M101.6,109.4v0.2h-62v-0.2h2.8c0-16.9,5.6-31.8,14-39.7c1.4-1.3,2.8-2.4,4.3-3.3c2.9,1.6,6.3,2.5,9.9,2.5
	c3.6,0,7-0.9,9.9-2.5c1.4,0.9,2.8,1.9,4.1,3.2c8.5,7.9,14.2,22.8,14.2,39.9H101.6z"/>
<path class="st2" d="M86.3,48c0,2.3-0.5,4.5-1.4,6.5c-2.3,5.1-7.3,8.7-13.2,9c-0.3,0-0.6,0-0.9,0c-0.3,0-0.7,0-1,0
	c-5.9-0.4-11-4.1-13.2-9.3c-0.8-1.9-1.3-4-1.3-6.1c0-2.2,0.5-4.3,1.3-6.2c2.4-5.5,7.8-9.3,14.2-9.3c6.2,0,11.6,3.7,14.1,9
	C85.8,43.5,86.3,45.7,86.3,48z"/>
<path d="M71.6,63.5c-0.3,0-0.6,0-0.9,0c-0.3,0-0.7,0-1,0c0.3,0,0.6,0,0.9,0C71,63.5,71.3,63.5,71.6,63.5z"/>
<path d="M98.9,109.4L98.9,109.4l-56.5,0v0c0-16.9,5.6-31.8,14-39.7c1.4-1.3,2.8-2.4,4.3-3.3c2.9,1.6,6.3,2.5,9.9,2.5
	c3.6,0,7-0.9,9.9-2.5c1.4,0.9,2.8,1.9,4.1,3.2C93.2,77.5,98.9,92.4,98.9,109.4z"/>
<path class="st1" d="M86.3,48c0,2.3-0.5,4.5-1.4,6.5c-2.3,5.1-7.3,8.7-13.2,9c-0.3,0-0.6,0-0.9,0c-0.3,0-0.7,0-1,0
	c-5.9-0.4-11-4.1-13.2-9.3c-0.8-1.9-1.3-4-1.3-6.1c0-2.2,0.5-4.3,1.3-6.2c2.4-5.5,7.8-9.3,14.2-9.3c6.2,0,11.6,3.7,14.1,9
	C85.8,43.5,86.3,45.7,86.3,48z"/>
<path d="M86.3,48c0,2.3-0.5,4.5-1.4,6.5c-2.3,5.1-7.3,8.7-13.2,9c-0.3,0-0.6,0-0.9,0c-0.3,0-0.7,0-1,0c-5.9-0.4-11-4.1-13.2-9.3
	c-0.8-1.9-1.3-4-1.3-6.1c0-2.2,0.5-4.3,1.3-6.2c2.4-5.5,7.8-9.3,14.2-9.3c6.2,0,11.6,3.7,14.1,9C85.8,43.5,86.3,45.7,86.3,48z"/>
<path d="M98.9,63.5c-0.3,0-0.7,0-1,0c0.3,0,0.6,0,0.9,0c0.3,0,0.7,0,1,0C99.5,63.5,99.2,63.5,98.9,63.5z"/>
</svg>
