<?xml version="1.0" encoding="utf-8"?>
<!-- Generator: Adobe Illustrator 22.1.0, SVG Export Plug-In . SVG Version: 6.00 Build 0)  -->
<svg version="1.1" id="Lag_1" xmlns="http://www.w3.org/2000/svg" xmlns:xlink="http://www.w3.org/1999/xlink" x="0px" y="0px"
	 viewBox="0 0 141.7 141.7" style="enable-background:new 0 0 141.7 141.7;" xml:space="preserve">
<style type="text/css">
	.st0{stroke:#000000;stroke-miterlimit:10;}
</style>
<g>
	<path class="st0" d="M96.5,65.6v37.2c0,3.7-3,6.8-6.8,6.8H79.7V92.3c0-0.9-0.7-1.6-1.6-1.6H64.2c-0.9,0-1.6,0.7-1.6,1.6v17.3H52.5
		c-3.7,0-6.8-3-6.8-6.8V65.6c0-3.7,3-6.8,6.8-6.8h37.2C93.5,58.8,96.5,61.8,96.5,65.6z"/>
	<path class="st0" d="M76.6,37.7c0,1.6-0.6,3.2-1.9,4.3l-3.8,3.5L56.7,58.8L45.7,69l-6,5.6c-2.4,2.2-6.2,2.1-8.4-0.3
		c-1.1-1.1-1.6-2.6-1.6-4c0-1.6,0.6-3.2,1.9-4.3l34.9-32.5c1.1-1.1,2.6-1.6,4.1-1.6c1.6,0,3.2,0.6,4.3,1.9
		C76,34.8,76.6,36.3,76.6,37.7z"/>
	<polygon class="st0" points="85.1,58.8 56.7,58.8 70.9,45.6 	"/>
	<path class="st0" d="M112,70.2c0,1.5-0.5,2.9-1.6,4c-2.2,2.4-6,2.5-8.4,0.3l-5.5-5.1L85.1,58.8L70.9,45.6l-3.8-3.5
		c-1.3-1.2-1.9-2.8-1.9-4.3c0-1.5,0.5-2.9,1.6-4c1.1-1.1,2.5-1.8,3.9-1.9c1.6-0.1,3.2,0.4,4.5,1.6l34.9,32.5
		C111.4,67,112,68.6,112,70.2z"/>
</g>
</svg>
