<?xml version="1.0" encoding="utf-8"?>
<!-- Generator: Adobe Illustrator 22.1.0, SVG Export Plug-In . SVG Version: 6.00 Build 0)  -->
<svg version="1.1" id="Lag_1" xmlns="http://www.w3.org/2000/svg" xmlns:xlink="http://www.w3.org/1999/xlink" x="0px" y="0px"
	 viewBox="0 0 141.7 141.7" style="enable-background:new 0 0 141.7 141.7;" xml:space="preserve">
<style type="text/css">
	.st0{fill:none;stroke:#000000;stroke-width:10;stroke-miterlimit:10;}
</style>
<g>
	<path d="M119.9,50.6c-5.4-12.4-19.8-18-32.1-12.7c-12.4,5.4-18,19.7-12.7,32.1c0,0,0,0,0,0c5.4,12.3,19.7,18,32.1,12.6
		C119.6,77.4,125.2,63,119.9,50.6z M97.5,72.8c-6.9,0-12.4-5.6-12.4-12.4c0-6.9,5.6-12.4,12.4-12.4c6.9,0,12.4,5.6,12.4,12.4
		C109.9,67.2,104.3,72.8,97.5,72.8z"/>
	<polyline class="st0" points="83.7,66.3 32.4,88.8 19.2,94.6 25.4,109 	"/>
	<line class="st0" x1="39.2" y1="103" x2="32.8" y2="88.4"/>
</g>
</svg>
